<?xml version="1.0" encoding="UTF-8" standalone="no"?>
<!-- Created with Inkscape (http://www.inkscape.org/) -->
<svg
   xmlns:dc="http://purl.org/dc/elements/1.1/"
   xmlns:cc="http://creativecommons.org/ns#"
   xmlns:rdf="http://www.w3.org/1999/02/22-rdf-syntax-ns#"
   xmlns:svg="http://www.w3.org/2000/svg"
   xmlns="http://www.w3.org/2000/svg"
   xmlns:sodipodi="http://sodipodi.sourceforge.net/DTD/sodipodi-0.dtd"
   xmlns:inkscape="http://www.inkscape.org/namespaces/inkscape"
   width="744.09448819"
   height="1052.3622047"
   id="svg2"
   sodipodi:version="0.32"
   inkscape:version="0.46+pre4"
   sodipodi:docname="checkered flag.svg"
   inkscape:output_extension="org.inkscape.output.svg.inkscape">
  <defs
     id="defs4">
    <inkscape:perspective
       sodipodi:type="inkscape:persp3d"
       inkscape:vp_x="0 : 526.18109 : 1"
       inkscape:vp_y="0 : 1000 : 0"
       inkscape:vp_z="744.09448 : 526.18109 : 1"
       inkscape:persp3d-origin="372.04724 : 350.78739 : 1"
       id="perspective10" />
    <inkscape:perspective
       id="perspective2390"
       inkscape:persp3d-origin="372.04724 : 350.78739 : 1"
       inkscape:vp_z="744.09448 : 526.18109 : 1"
       inkscape:vp_y="0 : 1000 : 0"
       inkscape:vp_x="0 : 526.18109 : 1"
       sodipodi:type="inkscape:persp3d" />
  </defs>
  <sodipodi:namedview
     id="base"
     pagecolor="#ffffff"
     bordercolor="#666666"
     borderopacity="1.0"
     gridtolerance="10000"
     guidetolerance="10"
     objecttolerance="10"
     inkscape:pageopacity="0.0"
     inkscape:pageshadow="2"
     inkscape:zoom="0.35"
     inkscape:cx="-23.571429"
     inkscape:cy="520"
     inkscape:document-units="px"
     inkscape:current-layer="layer1"
     showgrid="false"
     inkscape:window-width="640"
     inkscape:window-height="675"
     inkscape:window-x="68"
     inkscape:window-y="57" />
  <metadata
     id="metadata7">
    <rdf:RDF>
      <cc:Work
         rdf:about="">
        <dc:format>image/svg+xml</dc:format>
        <dc:type
           rdf:resource="http://purl.org/dc/dcmitype/StillImage" />
        <dc:title>Checkered flag</dc:title>
        <dc:subject>
          <rdf:Bag>
            <rdf:li>Checkered flag racing race cars</rdf:li>
          </rdf:Bag>
        </dc:subject>
      </cc:Work>
    </rdf:RDF>
  </metadata>
  <g
     inkscape:label="Layer 1"
     inkscape:groupmode="layer"
     id="layer1">
    <path
       style="fill:#000000"
       d="M 586.60757,696.87909 C 585.52934,694.48933 561.47647,634.24439 533.15675,563.00144 L 481.66635,433.46882 L 470.2833,426.77948 C 449.73959,414.70681 425.53984,409.11402 407.93079,412.36923 C 381.41536,417.27087 358.81605,436.55738 319.24152,488.05757 C 290.33629,525.67332 274.57685,541.20845 256.03106,550.36837 C 241.87738,557.35897 241.4182,557.44921 220.32593,557.38559 C 196.75706,557.3145 187.78663,554.84043 168.65425,543.13436 L 158.78338,537.09492 L 104.3978,400.16043 C 74.485739,324.84646 50.008643,262.10555 50.004276,260.73621 C 49.998836,259.02803 53.045924,259.95733 59.711285,263.69668 C 82.904842,276.70849 106.76529,282.33794 123.79863,278.81697 C 150.23941,273.35137 171.02995,255.74254 209.44374,206.27866 C 235.2323,173.07177 251.16033,155.77803 264.07191,146.96657 C 290.78631,128.73541 323.30144,127.71107 355.73308,144.07894 C 367.93372,150.23644 368.2765,150.31063 368.2765,146.79361 C 368.2765,144.61282 376.02866,141.37471 381.78203,141.1523 C 383.07194,141.10243 603.28569,692.22354 603.28569,695.50161 C 603.28569,696.19318 601.28129,697.2621 598.83144,697.87698 C 596.38161,698.49185 593.07012,699.49649 591.4726,700.10951 C 589.55905,700.84381 587.89909,699.7416 586.60757,696.87909 z M 246.07988,551.16868 C 251.15427,549.24056 260.72101,543.79897 267.33933,539.07623 L 279.37261,530.48946 L 276.27508,522.68939 C 274.57145,518.39936 269.76324,506.37058 265.59016,495.95876 L 258.00277,477.02822 L 246.98546,485.32075 C 236.07084,493.53602 219.76947,501.01083 212.76794,501.01083 C 210.7706,501.01083 209.13642,501.97478 209.13642,503.15293 C 209.13642,504.33108 213.44204,516.40538 218.70447,529.98469 C 229.49375,557.82562 229.18633,557.58772 246.07988,551.16868 z M 207.28595,501.91865 C 207.28595,501.40021 202.70605,489.56372 197.10839,475.61535 C 191.51073,461.66696 186.93082,449.6596 186.93082,448.93229 C 186.93082,448.20499 191.7189,446.22811 197.571,444.53925 C 208.84001,441.28709 216.89964,437.02839 227.90736,428.50957 C 231.61597,425.6395 235.06476,423.29125 235.57132,423.29125 C 236.07789,423.29125 240.87139,434.32466 246.22353,447.80993 C 251.57567,461.2952 256.73658,473.16132 257.69224,474.17907 C 259.64876,476.26272 269.46603,465.96256 287.23451,443.18376 C 293.38719,435.29615 298.59763,428.84265 298.81324,428.84265 C 299.02886,428.84265 303.64061,440.08423 309.06159,453.82394 C 314.48256,467.56366 319.56603,478.80524 320.35822,478.80524 C 321.1504,478.80524 325.76785,473.6008 330.61922,467.23982 C 335.4706,460.87885 344.29762,450.57108 350.23483,444.33368 L 361.02974,432.99297 L 351.9864,410.10006 C 347.01255,397.50897 342.3684,385.60535 341.66608,383.64757 C 340.52136,380.4567 339.51456,380.93592 331.94671,388.27374 C 327.30341,392.7759 318.10383,403.32935 311.5032,411.72584 C 304.90257,420.12233 299.21857,426.99219 298.87207,426.99219 C 298.52557,426.99219 293.50344,414.87409 287.71178,400.06311 C 281.92011,385.25211 276.96383,373.386 276.6978,373.69397 C 276.43178,374.00192 269.56222,382.581 261.43214,392.75856 C 253.30205,402.93613 244.18617,413.56752 241.17463,416.38389 L 235.6991,421.50456 L 225.89933,396.02876 C 220.50945,382.01707 215.42647,369.8228 214.60378,368.93035 C 213.77792,368.03447 209.4911,370.2715 205.03247,373.925 C 196.06458,381.27352 179.96245,389.33659 170.73924,391.0972 C 167.43154,391.72861 164.72523,392.80669 164.72523,393.49294 C 164.72523,394.1792 169.30513,406.15298 174.90279,420.10137 C 180.50045,434.04973 185.08036,445.88622 185.08036,446.40467 C 185.08036,448.38859 166.88332,447.22491 156.78795,444.59539 C 150.97704,443.08184 140.39322,438.90784 133.26835,435.3198 C 126.14348,431.73179 120.31405,429.05379 120.31405,429.3687 C 120.31405,429.68363 125.11499,441.97656 130.9828,456.68634 L 141.65155,483.4314 L 155.50147,490.35168 C 163.11893,494.15783 173.9313,498.47475 179.52896,499.94485 C 189.42842,502.5447 207.28595,503.81455 207.28595,501.91865 z M 466.26419,399.92692 C 461.04031,386.82451 455.85249,374.99853 454.7357,373.64693 C 451.62038,369.87663 437.2044,363.07466 423.13294,358.73567 C 408.8035,354.31711 389.49689,353.35618 391.01469,357.13709 C 391.5254,358.40929 396.338,370.48358 401.70933,383.96885 L 411.47541,408.48753 L 422.98942,408.48753 C 435.41702,408.48753 452.90914,413.28947 466.3512,420.39122 C 470.93111,422.81089 474.92217,424.55636 475.22023,424.27004 C 475.51828,423.98372 471.48808,413.02931 466.26419,399.92692 z M 162.03117,391.36263 C 162.52107,390.08599 158.4112,377.80352 152.89812,364.06825 C 147.38505,350.33298 143.26005,338.47051 143.73145,337.7072 C 144.20284,336.94388 145.75721,336.31935 147.18559,336.31935 C 153.26033,336.31935 171.00159,328.08409 181.36965,320.45155 C 192.41729,312.31873 192.57606,312.26853 194.16794,316.40348 C 200.99807,334.1449 213.58225,365.17409 214.2526,365.92681 C 215.30648,367.11014 228.48326,352.38985 242.80568,334.02906 C 248.94868,326.15398 254.57691,320.08288 255.31285,320.53772 C 256.0488,320.99257 261.05322,332.67487 266.4338,346.49841 C 271.81437,360.32197 276.82056,371.38933 277.55866,371.09255 C 278.29675,370.79579 285.59632,362.22587 293.77994,352.04831 C 301.96353,341.87075 310.80602,331.54883 313.42994,329.11073 L 318.20069,324.67781 L 319.92334,329.11073 C 320.8708,331.54883 325.51178,343.50238 330.23665,355.67417 C 334.9615,367.84596 339.12624,378.10361 339.49158,378.46895 C 339.85691,378.83431 344.19304,376.03579 349.1274,372.25005 C 358.58311,364.99541 375.44389,356.69396 380.8199,356.64614 C 389.73119,356.56687 389.56204,354.34328 378.54897,326.79293 C 372.71003,312.1862 367.76316,300.05774 367.55595,299.8408 C 367.34871,299.62385 363.05434,300.53774 358.01289,301.87166 C 346.65904,304.87578 336.2364,310.14636 326.84919,317.63066 C 322.89265,320.78515 319.14546,323.35939 318.52209,323.35121 C 317.89871,323.34303 312.89018,311.89327 307.39202,297.9073 C 301.89388,283.92133 297.08833,272.11386 296.71306,271.66845 C 295.47456,270.19851 279.30783,287.03561 267.95106,301.62311 C 261.81034,309.51072 256.19334,315.96422 255.46885,315.96422 C 254.74435,315.96422 249.69806,304.67656 244.25488,290.88052 C 238.81167,277.0845 233.8616,265.48995 233.25471,265.11487 C 232.64781,264.73979 226.19498,272.07207 218.91506,281.40884 C 205.70349,298.35321 193.11937,311.79775 191.88567,310.28634 C 191.52708,309.84702 186.79927,298.24601 181.37942,284.5063 C 175.95958,270.76659 171.30795,259.24175 171.04246,258.89555 C 170.77699,258.54935 166.12435,261.56894 160.70326,265.60575 C 147.99957,275.06555 143.84172,277.1895 131.13711,280.70894 L 120.67983,283.60582 L 130.67449,308.50795 C 136.17156,322.20412 140.66918,334.57804 140.66918,336.00553 C 140.66918,338.10275 138.32175,338.34957 128.44019,337.29134 C 114.74855,335.82509 101.79991,331.78813 87.426678,324.50468 C 82.106347,321.80864 77.753329,320.31108 77.753329,321.17674 C 77.753329,326.43495 97.058113,371.1736 100.74733,374.46513 C 112.90227,385.30977 159.43088,398.13889 162.03117,391.36263 z M 422.44031,289.8658 L 411.76245,263.22594 L 400.29482,257.16122 C 381.40021,247.16872 347.92137,240.14654 347.92137,246.17591 C 347.92137,247.48484 352.41856,259.76731 357.91511,273.47028 L 367.90885,298.38479 L 380.00933,299.60895 C 395.04379,301.12994 408.71888,305.21338 421.94002,312.12961 C 427.53768,315.05786 432.34271,317.24039 432.61787,316.97968 C 432.89304,316.71897 428.31313,304.51774 422.44031,289.8658 z M 319.98058,253.19415 C 323.64381,251.35392 329.97185,248.83962 334.04288,247.60684 C 338.1139,246.37404 342.43263,245.05876 343.64004,244.68399 C 345.09586,244.23212 342.39425,235.39718 335.61968,218.45541 C 330.00109,204.40445 324.66812,192.14378 323.76865,191.20948 C 319.97414,187.26801 297.11211,197.05196 279.82104,210.01714 L 274.27884,214.17278 L 264.13057,188.80922 C 258.54902,174.85928 253.09685,163.15051 252.01462,162.78978 C 250.17091,162.1752 220.64115,196.37691 214.79855,205.89385 C 212.3425,209.89449 212.91331,212.21101 222.08019,235.44491 C 227.55083,249.31049 232.50595,260.95118 233.09157,261.31311 C 233.67721,261.67504 240.36133,254.12683 247.94521,244.53928 C 261.91745,226.87555 273.30599,214.70903 274.50461,216.16553 C 275.0483,216.82618 288.56738,250.35343 294.42042,265.55664 C 296.02862,269.7339 296.03821,269.73164 304.67513,263.13893 C 309.42988,259.50954 316.31734,255.03439 319.98058,253.19415 z M 388.63163,205.89178 C 388.63163,205.39958 384.42889,194.36617 379.29221,181.3731 C 368.70511,154.59342 366.63073,152.21002 346.64455,143.86207 C 334.10313,138.62369 306.55883,132.80355 304.42197,134.94041 C 303.88346,135.47892 308.21661,148.11745 314.0512,163.02603 L 324.65955,190.13253 L 335.82784,190.15729 C 347.49323,190.18314 372.79204,197.70769 381.33729,203.69302 C 385.69988,206.74869 388.63163,207.63242 388.63163,205.89178 z"
       id="path2396" />
  </g>
</svg>
