<?xml version="1.0" encoding="UTF-8" standalone="no"?>
<!-- Created with Inkscape (http://www.inkscape.org/) -->

<svg
   xmlns:dc="http://purl.org/dc/elements/1.1/"
   xmlns:cc="http://creativecommons.org/ns#"
   xmlns:rdf="http://www.w3.org/1999/02/22-rdf-syntax-ns#"
   xmlns:svg="http://www.w3.org/2000/svg"
   xmlns="http://www.w3.org/2000/svg"
   xmlns:sodipodi="http://sodipodi.sourceforge.net/DTD/sodipodi-0.dtd"
   xmlns:inkscape="http://www.inkscape.org/namespaces/inkscape"
   id="svg3425"
   version="1.1"
   inkscape:version="0.48.4 r9939"
   width="2031.9612"
   height="1189.9241"
   sodipodi:docname="12ul.svg">
  <sodipodi:namedview
     pagecolor="#ffffff"
     bordercolor="#666666"
     borderopacity="1"
     objecttolerance="10"
     gridtolerance="10"
     guidetolerance="10"
     inkscape:pageopacity="0"
     inkscape:pageshadow="2"
     inkscape:window-width="1262"
     inkscape:window-height="636"
     id="namedview3427"
     showgrid="false"
     inkscape:zoom="0.30038023"
     inkscape:cx="1285.4038"
     inkscape:cy="519.40231"
     inkscape:window-x="88"
     inkscape:window-y="78"
     inkscape:window-maximized="0"
     inkscape:current-layer="svg3425"
     fit-margin-top="0"
     fit-margin-left="0"
     fit-margin-right="0"
     fit-margin-bottom="0" />
  <metadata
     id="metadata3431">
    <rdf:RDF>
      <cc:Work
         rdf:about="">
        <dc:format>image/svg+xml</dc:format>
        <dc:type
           rdf:resource="http://purl.org/dc/dcmitype/StillImage" />
        <dc:title />
      </cc:Work>
    </rdf:RDF>
  </metadata>
  <defs
     id="defs3429" />
  <g
     id="g4447"
     transform="translate(-39.608634,-1.771864)">
    <path
       style="fill:#2c2ca0;stroke:none"
       d="m 852.16213,143.99915 473.16187,-51.788862 -23.5404,49.434822 614.4042,164.78273 9.4161,-47.08078 129.4722,176.55293 -204.8014,105.93175 -2.3541,-54.14289 -739.1682,-150.6585 -75.3293,72.97521 z"
       id="path4445"
       inkscape:connector-curvature="0" />
    <path
       style="fill:#ffcc00;stroke:none"
       d="m 836.95138,136.47706 c -8.42823,18.43995 188.25672,305.46319 229.87072,307.12775 41.6139,1.66455 67.6294,-93.63448 67.6294,-93.63448 l 702.8728,140.46759 c 0,0 -16.3879,56.35596 -9.1118,63.61667 7.2761,7.2607 242.1729,-99.90454 243.35,-118.14834 1.177,-18.24381 -139.4849,-198.91654 -148.3125,-196.5625 -8.8277,2.35404 -25.6666,52.07595 -25.6666,52.07595 L 1324.1451,134.95926 c 10e-5,0 29.9155,-44.162833 21.6627,-52.442646 -8.2529,-8.279813 -500.42819,35.520506 -508.85642,53.960446 z m 449.24242,-21.40625 c 5.8214,7.12192 -24.4438,38.33544 -24.4438,38.33544 L 1922.0625,333.5 c 0,0 4.089,-30.41276 11.1511,-36.29786 7.0621,-5.8851 103.0155,124.57968 100.6614,135.17286 -2.354,10.59317 -165.2898,87.70816 -169.2176,81.01661 -3.9277,-6.69154 11.8541,-46.41455 11.8541,-46.41455 L 1102.875,298.1875 c 0,0 -32.9798,58.86471 -44.75,61.21875 -11.7701,2.35404 -161.88542,-187.26076 -154.59177,-200.29589 7.29365,-13.03512 376.83927,-51.16148 382.66057,-44.03955 z"
       id="path4440"
       inkscape:connector-curvature="0"
       sodipodi:nodetypes="zscczsscczzzccsszccszz" />
  </g>
  <g
     id="g6311"
     transform="translate(-39.608634,-1.771864)">
    <path
       inkscape:connector-curvature="0"
       id="path6305"
       d="m 233.03798,1084.5823 768.08492,-700.89681 45.4652,62.48004 837.6904,-390.279461 -23.3038,-39.949367 183.1013,43.278481 -43.2785,193.088607 -29.962,-49.93671 -822.2912,589.25317 19.9747,153.13924 z"
       style="fill:#2c2ca0;stroke:#000000;stroke-width:1px;stroke-linecap:butt;stroke-linejoin:miter;stroke-opacity:1"
       sodipodi:nodetypes="ccccccccccc" />
    <path
       style="fill:#ffcc00;stroke:none"
       d="m 1849.4062,1.78125 c -1.8295,0.052424 -2.9901,0.3235759 -3.4062,0.84375 -6.6583,8.322785 14.9687,49.9375 14.9688,49.9375 l -807.3126,352.875 c 0,0 -24.9711,-54.93552 -43.2812,-61.59375 C 992.06485,337.18552 18.324763,1161.9731 39.964003,1189.4383 61.603243,1216.9035 1168.7502,986.95667 1195.1669,956.41456 1221.5836,925.87245 1183.515,799.93513 1183.515,799.93513 L 1964.1875,229 c 0,0 24.9502,46.60205 34.9375,44.9375 9.9874,-1.66456 59.9228,-204.731409 56.5938,-214.71875 -3.1212,-9.363133 -178.8693,-58.22385683 -206.3126,-57.4375 z M 1886.125,30.375 c 19.4576,-1.048842 145.5151,27.857753 147.625,34.1875 2.2506,6.75173 -30.9045,154.03096 -37.6562,155.15625 -6.7518,1.12528 -22.3126,-34.3125 -22.3126,-34.3125 l -882.875,606.25 c 1e-4,0 27.1968,79.02074 13.3438,95.40625 -13.853,16.38551 -756.02881,162.8068 -768.6875,152.4687 C 322.90381,1029.1932 993.99676,410.49884 1006.375,415 c 12.3782,4.50115 29.25,56.59375 29.25,56.59375 L 1901.5312,61.25 c 0,0 -22.2824,-24.62355 -17.7812,-30.25 0.2813,-0.351653 1.0778,-0.555077 2.375,-0.625 z"
       id="path4430"
       inkscape:connector-curvature="0"
       sodipodi:nodetypes="scccszzccscsssscczsscccs" />
  </g>
  <path
     inkscape:connector-curvature="0"
     d="m 1864.2928,154.59229 c 0,0 4.6149,-2.67468 4.6149,-2.67468 11.9622,-6.93298 16.0946,-21.10022 1.388,-42.91888 -12.5733,-18.653751 -25.7796,-26.497843 -45.7335,-17.010602 0,0 -9.6314,4.579301 -9.6314,4.579301 0,0 72.1414,109.897201 72.1414,109.897201 0,0 7.9797,-5.30817 7.9797,-5.30817 0,0 -30.7591,-46.56417 -30.7591,-46.56417 m -33.2548,-50.34233 c 0,0 2.1932,-1.08404 2.1932,-1.08404 8.0565,-3.982004 18.8244,-6.772774 29.6404,9.36114 11.1339,16.60826 4.1637,23.94862 -3.997,28.50547 0,0 -2.5854,1.44363 -2.5854,1.44363 0,0 -25.2512,-38.2262 -25.2512,-38.2262 m -63.9173,11.94946 c -22.2859,10.51753 -24.4008,47.70664 -2.8883,82.74742 22.8987,37.29866 58.8861,53.85315 80.3598,39.46988 20.3828,-13.65256 19.3763,-50.00443 -2.4307,-83.43173 -20.5341,-31.47618 -53.8293,-48.79603 -75.0408,-38.78557 m 68.4497,107.98473 c -16.0444,10.34579 -43.8547,-2.74475 -61.2834,-30.90935 -16.4911,-26.64916 -16.9255,-55.02736 1.171,-63.92256 17.3751,-8.54055 42.2469,5.89936 58.1597,30.45252 16.7951,25.9145 17.3868,54.42713 1.9527,64.37939 m -160.4991,-64.54332 c -27.2649,12.86727 -33.0677,55.82762 -10.5596,95.56104 24.0291,42.41849 65.3729,60.04702 91.9033,42.27671 25.0387,-16.77111 26.6247,-58.68609 3.673,-96.19381 -21.5596,-35.23288 -59.2002,-53.82767 -85.0167,-41.64394 m 71.8311,121.71845 c -19.7852,12.75788 -51.66,-1.21095 -69.9524,-33.17421 -17.2699,-30.17667 -15.3137,-62.88474 6.8382,-73.77331 21.1779,-10.40978 49.2059,5.20247 65.9136,32.73219 17.6675,29.11147 16.1525,61.99468 -2.7994,74.21533 m -154.6479,-78.91844 c 0,0 -13.806,6.56417 -13.806,6.56417 0,0 81.0963,148.81198 81.0963,148.81198 0,0 44.6712,-29.7155 44.6712,-29.7155 0,0 -9.5082,-16.8011 -9.5082,-16.8011 0,0 -31.3665,20.10344 -31.3665,20.10344 0,0 -71.0868,-128.96299 -71.0868,-128.96299 M 1529.34,444.42991 c 0,0 17.1757,-11.42539 17.1757,-11.42539 0,0 -63.1419,-127.88297 -63.1419,-127.88297 0,0 159.8944,72.50113 159.8944,72.50113 0,0 -85.1614,-158.94605 -85.1614,-158.94605 0,0 -14.7206,6.99904 -14.7206,6.99904 0,0 59.687,112.78905 59.687,112.78905 0,0 -161.2427,-74.02544 -161.2427,-74.02544 0,0 87.5095,179.99063 87.5095,179.99063 m -103.9476,69.14645 c 0,0 83.6391,-55.63712 83.6391,-55.63712 0,0 -10.1008,-21.16121 -10.1008,-21.16121 0,0 -63.2407,40.53232 -63.2407,40.53232 0,0 -32.7289,-72.68857 -32.7289,-72.68857 0,0 61.7354,-34.91945 61.7354,-34.91945 0,0 -9.5191,-19.97411 -9.5191,-19.97411 0,0 -61.7883,33.63474 -61.7883,33.63474 0,0 -22.9161,-50.8951 -22.9161,-50.8951 0,0 63.6399,-31.48349 63.6399,-31.48349 0,0 -9.0854,-19.03404 -9.0854,-19.03404 0,0 -84.241,40.0531 -84.241,40.0531 0,0 84.6059,191.57293 84.6059,191.57293 m -111.5052,-44.06903 c 25.1161,-18.80407 32.0251,-52.01731 20.1375,-79.71069 -7.8035,-18.17934 -23.8353,-31.74563 -42.7676,-33.70889 -18.1852,-1.58546 -36.2355,6.69337 -53.3609,14.8358 0,0 -30.128,14.32459 -30.128,14.32459 0,0 84.0935,217.15353 84.0935,217.15353 0,0 25.1677,-16.74165 25.1677,-16.74165 0,0 -37.1153,-93.42585 -37.1153,-93.42585 0,0 10.1467,-5.87298 10.1467,-5.87298 0,0 92.1883,55.91436 92.1883,55.91436 0,0 26.5217,-17.6424 26.5217,-17.6424 0,0 -94.8836,-55.12582 -94.8836,-55.12582 m -72.3555,-73.88856 c 0,0 6.4945,-3.20999 6.4945,-3.20999 23.6414,-11.68499 52.887,-20.93248 65.6233,9.34285 13.2234,31.43304 -10.2527,50.45424 -34.6667,64.10488 0,0 -7.8124,4.36819 -7.8124,4.36819 0,0 -29.6387,-74.60593 -29.6387,-74.60593 m -245.18433,90.15119 c 0,0 48.77683,159.69298 48.77683,159.69298 18.191,59.55621 69.4752,81.90949 127.7052,42.90652 53.9665,-36.14728 69.2532,-96.68964 50.1964,-147.80192 0,0 -51.4871,-138.09375 -51.4871,-138.09375 0,0 -27.1578,12.91241 -27.1578,12.91241 0,0 47.6099,131.46552 47.6099,131.46552 13.9072,38.40217 15.9606,82.0351 -29.4474,111.3152 -48.367,31.18809 -74.0396,-0.87682 -87.5233,-43.31212 0,0 -45.9586,-144.63901 -45.9586,-144.63901 0,0 -32.71413,15.55417 -32.71413,15.55417"
     style="font-size:241.03782654px;font-style:normal;font-variant:normal;font-weight:500;font-stretch:normal;text-align:start;line-height:125%;letter-spacing:0px;word-spacing:0px;writing-mode:lr-tb;text-anchor:start;fill:#ffcc00;fill-opacity:1;stroke:none;font-family:Futura Std;-inkscape-font-specification:Futura Std Medium"
     id="path4492" />
  <path
     sodipodi:nodetypes="scssscccccccssscsccsscssscsscscsssssssscsssssssccs"
     style="fill:#2c2ca0;stroke:#2c2ca0;stroke-width:60;stroke-miterlimit:4;stroke-dasharray:none"
     d="m 454.95974,968.64334 c 31.8481,-6.0686 58.2528,-11.2484 58.6771,-11.5106 1.4415,-0.891 2.8212,-6.9152 16.9353,-73.94891 15.943,-75.7203 38.31,-180.0607 62.5945,-292 38.5759,-177.8147 48.5316,-224.2965 50.6116,-236.2972 1.8155,-10.4748 2.2081,-16.6493 2.2388,-35.2028 0.035,-20.9939 -0.1208,-22.9818 -2.321,-29.6964 -2.6591,-8.1145 -7.7214,-14.8122 -12.7991,-16.9338 -4.6078,-1.9252 -125.5751,-2.0393 -127.0741,-0.1198 -1.4459,1.8516 -21.5344,98.6152 -20.8455,100.4104 0.5048,1.3156 2.2159,1.4344 11.9206,0.8281 13.2412,-0.8274 16.8366,0.3056 19.2424,6.0636 1.3603,3.2556 0.2531,9.0314 -23.1362,120.6836 -13.5108,64.4953 -28.7883,137.5143 -33.9502,162.2643 -5.1618,24.75 -17.0901,81.9 -26.5073,127 -9.4171,45.1 -18.6431,89.425 -20.5021,98.5 -1.8591,9.07501 -6.7892,32.91391 -10.9557,52.97551 -4.1666,20.0615 -7.3513,37.06 -7.0771,37.7745 0.2985,0.7779 1.4099,1.0873 2.7704,0.7712 1.2496,-0.2904 28.3295,-5.4931 60.1776,-11.5617 z m 294.9408,-56.3646 c 112.9509,-21.6064 185.3646,-35.89131 186.1785,-36.72711 1.2875,-1.3221 20.4751,-81.9372 20.4751,-86.0243 0,-1.774 -0.4556,-1.9461 -3.75,-1.4164 -117.1511,18.8369 -230.202,36.5729 -233.1188,36.5729 -4.4456,0 -8.6546,-3.2531 -9.7245,-7.5157 -0.6978,-2.7804 14.8132,-76.2825 22.7877,-107.9843 9.4822,-37.6953 21.5367,-61.574 40.67,-80.5629 14.7423,-14.6311 28.2935,-21.6021 50.386,-25.9195 5.6373,-1.1016 32.0746,-4.2768 58.7496,-7.0559 26.8511,-2.7975 52.0142,-5.9177 56.3728,-6.9903 30.06983,-7.3994 56.49033,-33.8168 80.98066,-80.9714 25.6408,-49.3697 40.2932,-102.5007 42.332,-153.5 1.5627,-39.0896 -7.8071,-70.3777 -24.0895,-80.4408 -8.1523,-5.0384 -2.4436,-4.9087 -171.63146,-3.9004 -86.604,0.5162 -157.8247,1.3013 -158.2682,1.7448 -0.8631,0.8631 -20.6963,90.2644 -20.6963,93.2919 0,1.3151 0.7691,1.8045 2.836,1.8045 1.5598,0 44.4223,-1.5772 95.25,-3.5048 110.5992,-4.1944 114.1152,-4.2535 120.8134,-2.0286 5.8897,1.9562 14.3409,9.124 17.0738,14.4808 5.3585,10.5035 7.0474,27.1369 4.5237,44.5526 -5.9905,41.3402 -27.4231,75.8457 -53.0711,85.4418 -4.5861,1.7159 -12.4971,2.5898 -45.7355,5.0523 -45.5544,3.3749 -54.1609,4.2717 -68.0699,7.0928 -21.4251,4.3454 -42.525,13.0186 -57.3942,23.5921 -39.3581,27.9875 -71.1488,88.0258 -93.0984,175.821 -5.2087,20.8337 -49.1752,228.61431 -48.579,229.57881 0.3131,0.5067 1.1052,0.9109 1.7602,0.8983 0.6551,-0.013 84.3719,-15.9346 186.0374,-35.3822 z"
     id="path6332"
     inkscape:connector-curvature="0" />
  <path
     inkscape:connector-curvature="0"
     id="path6321"
     d="m 454.95974,968.64334 c 31.8481,-6.0686 58.2528,-11.2484 58.6771,-11.5106 1.4415,-0.891 2.8212,-6.9152 16.9353,-73.94891 15.943,-75.7203 38.31,-180.0607 62.5945,-292 38.5759,-177.8147 48.5316,-224.2965 50.6116,-236.2972 1.8155,-10.4748 2.2081,-16.6493 2.2388,-35.2028 0.035,-20.9939 -0.1208,-22.9818 -2.321,-29.6964 -2.6591,-8.1145 -7.7214,-14.8122 -12.7991,-16.9338 -4.6078,-1.9252 -125.5751,-2.0393 -127.0741,-0.1198 -1.4459,1.8516 -21.5344,98.6152 -20.8455,100.4104 0.5048,1.3156 2.2159,1.4344 11.9206,0.8281 13.2412,-0.8274 16.8366,0.3056 19.2424,6.0636 1.3603,3.2556 0.2531,9.0314 -23.1362,120.6836 -13.5108,64.4953 -28.7883,137.5143 -33.9502,162.2643 -5.1618,24.75 -17.0901,81.9 -26.5073,127 -9.4171,45.1 -18.6431,89.425 -20.5021,98.5 -1.8591,9.07501 -6.7892,32.91391 -10.9557,52.97551 -4.1666,20.0615 -7.3513,37.06 -7.0771,37.7745 0.2985,0.7779 1.4099,1.0873 2.7704,0.7712 1.2496,-0.2904 28.3295,-5.4931 60.1776,-11.5617 z m 294.9408,-56.3646 c 112.9509,-21.6064 185.3646,-35.89131 186.1785,-36.72711 1.2875,-1.3221 20.4751,-81.9372 20.4751,-86.0243 0,-1.774 -0.4556,-1.9461 -3.75,-1.4164 -117.1511,18.8369 -230.202,36.5729 -233.1188,36.5729 -4.4456,0 -8.6546,-3.2531 -9.7245,-7.5157 -0.6978,-2.7804 14.8132,-76.2825 22.7877,-107.9843 9.4822,-37.6953 21.5367,-61.574 40.67,-80.5629 14.7423,-14.6311 28.2935,-21.6021 50.386,-25.9195 5.6373,-1.1016 32.0746,-4.2768 58.7496,-7.0559 26.8511,-2.7975 52.0142,-5.9177 56.3728,-6.9903 30.06983,-7.3994 56.49033,-33.8168 80.98066,-80.9714 25.6408,-49.3697 40.2932,-102.5007 42.332,-153.5 1.5627,-39.0896 -7.8071,-70.3777 -24.0895,-80.4408 -8.1523,-5.0384 -2.4436,-4.9087 -171.63146,-3.9004 -86.604,0.5162 -157.8247,1.3013 -158.2682,1.7448 -0.8631,0.8631 -20.6963,90.2644 -20.6963,93.2919 0,1.3151 0.7691,1.8045 2.836,1.8045 1.5598,0 44.4223,-1.5772 95.25,-3.5048 110.5992,-4.1944 114.1152,-4.2535 120.8134,-2.0286 5.8897,1.9562 14.3409,9.124 17.0738,14.4808 5.3585,10.5035 7.0474,27.1369 4.5237,44.5526 -5.9905,41.3402 -27.4231,75.8457 -53.0711,85.4418 -4.5861,1.7159 -12.4971,2.5898 -45.7355,5.0523 -45.5544,3.3749 -54.1609,4.2717 -68.0699,7.0928 -21.4251,4.3454 -42.525,13.0186 -57.3942,23.5921 -39.3581,27.9875 -71.1488,88.0258 -93.0984,175.821 -5.2087,20.8337 -49.1752,228.61431 -48.579,229.57881 0.3131,0.5067 1.1052,0.9109 1.7602,0.8983 0.6551,-0.013 84.3719,-15.9346 186.0374,-35.3822 z"
     style="fill:#ffcc00"
     sodipodi:nodetypes="scssscccccccssscsccsscssscsscscsssssssscsssssssccs" />
</svg>
