<?xml version="1.0" standalone="no"?>
<!DOCTYPE svg PUBLIC "-//W3C//DTD SVG 20010904//EN"
 "http://www.w3.org/TR/2001/REC-SVG-20010904/DTD/svg10.dtd">
<svg version="1.0" xmlns="http://www.w3.org/2000/svg"
 width="700.000000pt" height="700.000000pt" viewBox="0 0 700.000000 700.000000"
 preserveAspectRatio="xMidYMid meet">
<metadata>
Created by potrace 1.11, written by Peter Selinger 2001-2013
</metadata>
<g transform="translate(0.000000,700.000000) scale(0.100000,-0.100000)"
fill="#000000" stroke="none">
<path d="M4056 6929 c-489 -5 -890 -10 -892 -12 -5 -5 -146 -612 -171 -732
l-18 -90 -6 225 c-5 196 -9 233 -28 285 -43 119 -107 205 -198 263 -50 32 -54
33 -210 42 -318 19 -988 10 -1180 -15 l-51 -7 -31 -124 c-53 -211 -168 -765
-201 -972 l-12 -72 61 -69 60 -68 76 -13 c41 -7 75 -16 75 -20 0 -8 -215
-1046 -370 -1785 -174 -831 -555 -2658 -625 -3000 -51 -246 -105 -542 -105
-570 0 -2 36 -34 81 -70 76 -61 84 -65 132 -65 29 0 236 36 462 80 226 44 497
96 604 117 l193 37 37 76 c20 41 37 76 37 78 1 2 48 -20 105 -49 l104 -51 825
157 c1740 330 2736 527 2752 543 17 18 149 539 207 817 20 99 25 144 20 188
-6 55 -11 63 -65 118 -58 58 -59 59 -115 59 -31 0 -368 -50 -750 -110 -893
-143 -1263 -199 -1267 -195 -10 9 140 684 189 855 108 377 310 629 554 694 81
22 206 39 626 86 405 45 511 61 589 88 307 107 575 390 810 852 193 381 314
769 372 1190 8 57 13 194 13 340 0 218 -3 256 -23 345 -51 226 -131 372 -257
468 -77 59 -126 76 -250 87 -115 11 -888 10 -2159 -1z m2218 -219 c52 -16 127
-87 164 -158 133 -249 135 -724 6 -1235 -128 -509 -404 -1040 -666 -1283 -79
-72 -191 -146 -266 -174 -80 -31 -164 -44 -617 -95 -451 -51 -498 -58 -610
-86 -280 -72 -512 -309 -650 -669 -58 -148 -115 -373 -215 -850 -89 -420 -90
-438 -27 -465 30 -12 73 -7 477 55 482 74 1638 257 1683 266 21 4 27 2 27 -12
0 -47 -172 -761 -187 -775 -11 -10 -381 -86 -1118 -228 -1256 -243 -2257 -431
-2265 -426 -17 11 401 1976 484 2270 217 773 521 1268 906 1478 134 73 348
142 520 166 41 6 244 24 450 41 206 17 396 35 423 40 215 44 415 301 504 650
46 184 48 382 4 501 -22 59 -90 133 -151 165 -48 26 -231 24 -1212 -11 -433
-16 -790 -26 -793 -24 -8 9 174 842 188 855 7 8 1885 22 2432 19 328 -2 482
-6 509 -15z m-3865 -9 l223 -6 44 -48 c32 -36 50 -68 65 -119 20 -64 21 -86
16 -296 l-5 -227 -60 -290 c-33 -159 -162 -758 -286 -1330 -123 -572 -360
-1674 -526 -2450 -167 -775 -306 -1420 -311 -1431 -6 -19 -27 -25 -146 -48
-76 -14 -322 -62 -547 -106 -225 -44 -412 -77 -415 -75 -10 11 52 317 635
3105 338 1617 448 2152 464 2252 11 69 11 80 -4 103 -24 37 -54 45 -170 45
l-103 0 18 106 c31 168 118 587 147 703 l27 106 165 5 c242 8 515 9 769 1z
m559 -969 l31 -69 73 -15 c64 -12 120 -13 408 -2 1258 47 1564 55 1586 44 35
-19 47 -58 52 -171 12 -306 -174 -691 -357 -738 -20 -5 -182 -21 -361 -36
-179 -14 -368 -30 -420 -36 -313 -34 -579 -124 -806 -275 -87 -58 -256 -225
-340 -336 -93 -125 -198 -301 -278 -471 -63 -131 -153 -354 -177 -435 -7 -23
-14 -40 -16 -38 -5 4 25 144 317 1496 104 481 201 937 217 1013 15 75 31 137
34 137 4 0 20 -31 37 -68z"/>
</g>
</svg>
